<svg viewBox="0 0 1200 500" fill="none" xmlns="http://www.w3.org/2000/svg">
  <!-- Background gradient -->
  <defs>
    <linearGradient id="bg1" x1="0" y1="0" x2="1200" y2="500">
      <stop offset="0%" stop-color="#1a1a2e"/>
      <stop offset="50%" stop-color="#16213e"/>
      <stop offset="100%" stop-color="#0f3460"/>
    </linearGradient>
    <linearGradient id="gold1" x1="0" y1="0" x2="1" y2="1">
      <stop offset="0%" stop-color="#E8D48B"/>
      <stop offset="100%" stop-color="#C5A044"/>
    </linearGradient>
  </defs>
  <rect width="1200" height="500" fill="url(#bg1)"/>
  
  <!-- Decorative circles -->
  <circle cx="150" cy="100" r="60" fill="#C5A044" opacity="0.1"/>
  <circle cx="1050" cy="400" r="80" fill="#C5A044" opacity="0.1"/>
  <circle cx="900" cy="80" r="40" fill="#D4B66A" opacity="0.15"/>
  
  <!-- Camera icon large -->
  <rect x="420" y="120" width="360" height="220" rx="30" fill="url(#gold1)" opacity="0.9"/>
  <rect x="520" y="85" width="160" height="50" rx="20" fill="#A6852E"/>
  <circle cx="600" cy="230" r="80" fill="#0D0D0D"/>
  <circle cx="600" cy="230" r="65" fill="#1a1a2e"/>
  <circle cx="600" cy="230" r="50" fill="#0D0D0D"/>
  <circle cx="600" cy="230" r="30" fill="#16213e"/>
  <ellipse cx="580" cy="210" rx="15" ry="10" fill="white" opacity="0.3"/>
  <circle cx="720" cy="110" r="15" fill="#E8D48B"/>
  
  <!-- Text -->
  <text x="600" y="410" text-anchor="middle" font-family="system-ui" font-size="42" font-weight="bold" fill="white">Premium Camera Rentals</text>
  <text x="600" y="460" text-anchor="middle" font-family="system-ui" font-size="22" fill="#D4B66A">Capture moments that matter</text>
  
  <!-- Sparkles -->
  <path d="M200 200 L210 215 L200 230 L190 215 Z" fill="#E8D48B" opacity="0.6"/>
  <path d="M1000 150 L1010 165 L1000 180 L990 165 Z" fill="#E8D48B" opacity="0.6"/>
  <path d="M300 380 L308 392 L300 404 L292 392 Z" fill="#D4B66A" opacity="0.5"/>
  <path d="M950 350 L958 362 L950 374 L942 362 Z" fill="#D4B66A" opacity="0.5"/>
</svg>
