<svg viewBox="0 0 1200 500" fill="none" xmlns="http://www.w3.org/2000/svg">
  <!-- Background gradient -->
  <defs>
    <linearGradient id="bg1" x1="0" y1="0" x2="1200" y2="500">
      <stop offset="0%" stop-color="#1a1a2e"/>
      <stop offset="50%" stop-color="#16213e"/>
      <stop offset="100%" stop-color="#0f3460"/>
    </linearGradient>
    <linearGradient id="gold1" x1="0" y1="0" x2="1" y2="1">
      <stop offset="0%" stop-color="#E8D48B"/>
      <stop offset="100%" stop-color="#C5A044"/>
    </linearGradient>
  </defs>
  <rect width="1200" height="500" fill="url(#bg1)"/>
  
  <!-- Decorative circles -->
  <circle cx="150" cy="100" r="60" fill="#C5A044" opacity="0.08"/>
  <circle cx="1050" cy="400" r="80" fill="#C5A044" opacity="0.08"/>
  <circle cx="900" cy="80" r="40" fill="#D4B66A" opacity="0.1"/>
  <circle cx="250" cy="380" r="50" fill="#C5A044" opacity="0.06"/>
  
  <!-- Camera icon large -->
  <rect x="450" y="100" width="300" height="190" rx="25" fill="url(#gold1)" opacity="0.9"/>
  <rect x="530" y="70" width="140" height="45" rx="18" fill="#A6852E"/>
  <circle cx="600" cy="195" r="70" fill="#0D0D0D"/>
  <circle cx="600" cy="195" r="55" fill="#1a1a2e"/>
  <circle cx="600" cy="195" r="40" fill="#0D0D0D"/>
  <circle cx="600" cy="195" r="25" fill="#16213e"/>
  <ellipse cx="582" cy="178" rx="12" ry="8" fill="white" opacity="0.3"/>
  <circle cx="690" cy="90" r="12" fill="#E8D48B"/>
  
  <!-- Text -->
  <text x="600" y="360" text-anchor="middle" font-family="system-ui, sans-serif" font-size="40" font-weight="700" fill="white">Premium Camera Rentals</text>
  <text x="600" y="410" text-anchor="middle" font-family="system-ui, sans-serif" font-size="20" fill="#D4B66A">Capture moments that matter</text>
  
  <!-- Sparkles -->
  <path d="M200 200 L210 215 L200 230 L190 215 Z" fill="#E8D48B" opacity="0.5"/>
  <path d="M1000 150 L1010 165 L1000 180 L990 165 Z" fill="#E8D48B" opacity="0.5"/>
  <path d="M300 320 L308 332 L300 344 L292 332 Z" fill="#D4B66A" opacity="0.4"/>
  <path d="M950 350 L958 362 L950 374 L942 362 Z" fill="#D4B66A" opacity="0.4"/>
</svg>
