<svg viewBox="0 0 1200 500" fill="none" xmlns="http://www.w3.org/2000/svg">
  <!-- Background -->
  <defs>
    <linearGradient id="bg2" x1="0" y1="0" x2="1200" y2="500">
      <stop offset="0%" stop-color="#C5A044"/>
      <stop offset="50%" stop-color="#D4B66A"/>
      <stop offset="100%" stop-color="#A6852E"/>
    </linearGradient>
  </defs>
  <rect width="1200" height="500" fill="url(#bg2)"/>
  
  <!-- Pattern dots -->
  <circle cx="50" cy="50" r="5" fill="white" opacity="0.2"/>
  <circle cx="150" cy="50" r="5" fill="white" opacity="0.2"/>
  <circle cx="250" cy="50" r="5" fill="white" opacity="0.2"/>
  <circle cx="350" cy="50" r="5" fill="white" opacity="0.2"/>
  <circle cx="50" cy="150" r="5" fill="white" opacity="0.2"/>
  <circle cx="150" cy="150" r="5" fill="white" opacity="0.2"/>
  <circle cx="1050" cy="350" r="5" fill="white" opacity="0.2"/>
  <circle cx="1150" cy="350" r="5" fill="white" opacity="0.2"/>
  <circle cx="1050" cy="450" r="5" fill="white" opacity="0.2"/>
  <circle cx="1150" cy="450" r="5" fill="white" opacity="0.2"/>
  
  <!-- Content card -->
  <rect x="100" y="80" width="500" height="340" rx="20" fill="white" opacity="0.95"/>
  
  <!-- Text on card -->
  <text x="350" y="170" text-anchor="middle" font-family="system-ui" font-size="18" font-weight="bold" fill="#C5A044" letter-spacing="3">CANON G7X MARK III</text>
  <text x="350" y="230" text-anchor="middle" font-family="system-ui" font-size="38" font-weight="bold" fill="#1a1a2e">Vlog Like A Pro</text>
  <text x="350" y="280" text-anchor="middle" font-family="system-ui" font-size="18" fill="#666">4K Video • Flip Screen • Compact</text>
  
  <!-- Price tag -->
  <rect x="250" y="310" width="200" height="60" rx="30" fill="#1a1a2e"/>
  <text x="350" y="348" text-anchor="middle" font-family="system-ui" font-size="22" font-weight="bold" fill="white">₱600 / day</text>
  
  <!-- Camera illustration on right -->
  <rect x="720" y="100" width="380" height="280" rx="25" fill="white" opacity="0.15"/>
  <rect x="750" y="130" width="320" height="220" rx="20" fill="white" opacity="0.2"/>
  <circle cx="910" cy="240" r="70" fill="white" opacity="0.25"/>
  <circle cx="910" cy="240" r="50" fill="white" opacity="0.15"/>
  <circle cx="910" cy="240" r="30" fill="white" opacity="0.3"/>
  
  <!-- Film strip decoration -->
  <rect x="680" y="420" width="440" height="40" rx="5" fill="white" opacity="0.15"/>
  <rect x="700" y="425" width="30" height="30" rx="3" fill="white" opacity="0.2"/>
  <rect x="740" y="425" width="30" height="30" rx="3" fill="white" opacity="0.2"/>
  <rect x="780" y="425" width="30" height="30" rx="3" fill="white" opacity="0.2"/>
  <rect x="820" y="425" width="30" height="30" rx="3" fill="white" opacity="0.2"/>
  <rect x="860" y="425" width="30" height="30" rx="3" fill="white" opacity="0.2"/>
  <rect x="900" y="425" width="30" height="30" rx="3" fill="white" opacity="0.2"/>
  <rect x="940" y="425" width="30" height="30" rx="3" fill="white" opacity="0.2"/>
  <rect x="980" y="425" width="30" height="30" rx="3" fill="white" opacity="0.2"/>
  <rect x="1020" y="425" width="30" height="30" rx="3" fill="white" opacity="0.2"/>
  <rect x="1060" y="425" width="30" height="30" rx="3" fill="white" opacity="0.2"/>
</svg>
